<svg xmlns="http://www.w3.org/2000/svg" xmlns:xlink="http://www.w3.org/1999/xlink" width="1045.642" height="364" viewBox="0 0 1045.642 364">
  <defs>
    <clipPath id="clip-path">
      <rect id="Rect치ngulo_27" data-name="Rect치ngulo 27" width="487.868" height="364" fill="none" stroke="#bd09df" stroke-width="4"/>
    </clipPath>
    <clipPath id="clip-path-3">
      <rect id="Rect치ngulo_30" data-name="Rect치ngulo 30" width="144.178" height="45.356" transform="translate(0 0)" fill="none"/>
    </clipPath>
  </defs>
  <g id="Grupo_65" data-name="Grupo 65" transform="translate(-549.808 -2603.415)" opacity="0.54">
    <g id="Grupo_55" data-name="Grupo 55" transform="translate(549.808 2603.415)" opacity="0.49">
      <g id="Grupo_54" data-name="Grupo 54" transform="translate(0 0)" clip-path="url(#clip-path)">
        <path id="Trazado_5990" data-name="Trazado 5990" d="M116.745,83.258c10.517-3.814,19.68-9.132,26.079-19.5-8.945-.652-19.6-1.174-28.879-3.8-10.253,6.654-14.174,8.074-25.07,20.944C74.151,98.276,111.627,85.12,116.745,83.258Z" transform="translate(296.208 207.771)" fill="none" stroke="#bd09df" stroke-width="4"/>
        <path id="Trazado_5991" data-name="Trazado 5991" d="M133.77,75.5c-10.972-3.84-18.809-11.213-5.587-20.551-2.01-.42-48.76,27.843-49.752,39.61C94.406,103.119,118.4,80.081,133.77,75.5Z" transform="translate(271.818 190.428)" fill="none" stroke="#bd09df" stroke-width="4"/>
        <path id="Trazado_5992" data-name="Trazado 5992" d="M128.823,42.659c-22.248,4.689-38.775,5.252-50.6,3.474C35.138,63,81.59,66.358,99.127,66.916c21.462.683,28.8-3.278,51.458-4.559C138.237,56.172,129.841,48.947,128.823,42.659Z" transform="translate(209.401 147.839)" fill="none" stroke="#bd09df" stroke-width="4"/>
        <path id="Trazado_5993" data-name="Trazado 5993" d="M69.122,85.033c9.958,3.483,32.068-1.018,39.986-3.247C131.579,75.472,137.152,68.3,155.43,63.25c-10.7-2.532-22.5-6.274-29.067-11.017C116.128,59.1,72.971,77.464,69.122,85.033Z" transform="translate(239.553 181.019)" fill="none" stroke="#bd09df" stroke-width="4"/>
        <path id="Trazado_5994" data-name="Trazado 5994" d="M98.552,120.945c55.727,21.7,88.045,28.937,146.59,40.687,1.938-1.755,3.729-1.809,6.832-2.4-22.7,28.964,35.623,23.57,64.229,25.8-.5-6.6,7.453-12.071,28.018-14.04-24.4,9.119-20.73,14.969-14.214,20.774,11.253,10.008,42.334,17.036,34.515,19.881-10.628,6.752-15.179,10.159-13.223,13.209,5.52,8.623,43.035,8.069,40.986,12.8-12.281,7.636-32.666,19.435,30.407,23.588,10.124,2.211-28.808,26.414,38.28,16.393,0,0-46.219-42.482-61.367-87.129-7-20.613-14.1-30.442-24-35.529-11.557-5.93-26.9-5.39-50.283-8.074C192.014,131.6,98.226,92.446,6.332,1.382,12.8,50.942,48.537,92.352,98.552,120.945Z" transform="translate(21.945 4.787)" fill="none" stroke="#bd09df" stroke-width="4"/>
        <path id="Trazado_5995" data-name="Trazado 5995" d="M95.733,78.123c17.144-2.724,29.746-8.1,46.353-11.4-5.7-4.859-5.779-10.7,5.984-17.322-13.393-5.189-44.563,2.688-57.366,10.226C71.484,70.956,39.738,87.037,95.733,78.123Z" transform="translate(222.436 165.427)" fill="none" stroke="#bd09df" stroke-width="4"/>
        <path id="Trazado_5996" data-name="Trazado 5996" d="M112.253,63.063c-2.443,5.113-45.451,30.956,8.815,20.171.348-.7.728-1.358,1.072-2.072a73.817,73.817,0,0,0,21.015-13.044C130.174,70.351,115.562,69.645,112.253,63.063Z" transform="translate(325.006 218.552)" fill="none" stroke="#bd09df" stroke-width="4"/>
        <path id="Trazado_5997" data-name="Trazado 5997" d="M126.056,76.181C113,83.527,100.709,92.887,85.294,104.926c-.3,5.015-.308,17.872,6.131,19.323,6.3,1.416,38.708-16.492,59.027-56.513C140.985,71.626,132.656,72.461,126.056,76.181Z" transform="translate(295.261 234.747)" fill="none" stroke="#bd09df" stroke-width="4"/>
        <path id="Trazado_5998" data-name="Trazado 5998" d="M222.389,94.82c-3.608-3.537-1.183-10.651,9.53-21.158C185.949,85.5,171.981,94.338,130.008,108.5c35.565-23.36,20.154-15.46,52.717-28.821-5.93-1.554-8-5.479-2.854-13.178,2.572-3.84,7.212-7.324,12.482-10.4C141.136,60.256,137.89,68.379,90.085,79.878c-19.073,6.386-69.651,23.266-50.819,30.683,22.163,8.735,60.018,4.086,90.434-2.063-6.158,3.381-38.8,21.064-29,29.594,13.232,11.517,55.865-2.059,78.81-10.771C206.478,101.358,193.036,111.129,222.389,94.82Z" transform="translate(121.766 194.431)" fill="none" stroke="#bd09df" stroke-width="4"/>
        <path id="Trazado_5999" data-name="Trazado 5999" d="M158.747,79.674c-3.09-2.121-4.475-7.6,1.84-15.773-19.14,7.239-27.415,7.556-36.306,11.6-10.7,4.877-21.569,13.549-43.79,24.793,0,0-19.466,20.881-16.469,28.147,4.452,10.82,45.876-11.49,53.521-16.6C131.627,96.237,130.765,97.058,158.747,79.674Z" transform="translate(220.789 221.457)" fill="none" stroke="#bd09df" stroke-width="4"/>
        <path id="Trazado_6000" data-name="Trazado 6000" d="M163.184,78.578c-3.394-1.889-4.93-6.439-1.389-13.022-18.983,7.815-30.6,10.159-39.213,14.527-11.374,5.765-20.587,10.74-41.3,26.026-4.033,8.592-11.253,26.338-4.041,28.277s30.92-11.419,46.26-21.9C142.111,92.868,146.157,92.734,163.184,78.578Z" transform="translate(257.052 227.192)" fill="none" stroke="#bd09df" stroke-width="4"/>
        <path id="Trazado_6001" data-name="Trazado 6001" d="M254.6,60.58C191.9,48.031,144.908,58.86,71.032,42.525c-39.923-6.707-60.045-5.1-62.18,2.845-4.8,17.764,58.237,51.9,132.036,49.4,68.208-13.026,36.011-8.793,98.365-13.96C228.661,74.892,232.591,66.6,254.6,60.58Z" transform="translate(29.789 132.83)" fill="none" stroke="#bd09df" stroke-width="4"/>
        <path id="Trazado_6002" data-name="Trazado 6002" d="M263.5,110.221c-58.554-7.114-79.078-6.783-126.557-32.845-17.925-5.56-36.19-11.812-51.6-19.6C70.079,50.059,8.011,9,2.607,18.367c-12.035,20.846,30.844,59.9,43.844,69.6A209.22,209.22,0,0,0,99.088,116.49c55.513,4.242,109.435,5.533,164.814,8.784C259.11,119.616,258.962,114.369,263.5,110.221Z" transform="translate(1.734 58.865)" fill="none" stroke="#bd09df" stroke-width="4"/>
        <path id="Trazado_6003" data-name="Trazado 6003" d="M135.585,101.035c41.03-19.086,21.98-11.495,67.19-26.535-5.113-5.6,3.1-15,26.361-24.851C175.6,48.14,145.7,54.463,92.1,56.334,36.814,67.1,19.6,72.366,23.109,81.828,28.222,95.663,85.994,103.456,135.585,101.035Z" transform="translate(78.579 171.265)" fill="none" stroke="#bd09df" stroke-width="4"/>
      </g>
    </g>
    <g id="Grupo_56" data-name="Grupo 56" transform="translate(1107.581 2603.415)" opacity="0.49">
      <g id="Grupo_54-2" data-name="Grupo 54" clip-path="url(#clip-path)">
        <path id="Trazado_5990-2" data-name="Trazado 5990" d="M111.549,83.258c-10.517-3.814-19.68-9.132-26.079-19.5,8.945-.652,19.6-1.174,28.879-3.8,10.253,6.654,14.174,8.074,25.07,20.944C154.142,98.276,116.667,85.12,111.549,83.258Z" transform="translate(-36.633 207.771)" fill="none" stroke="#bd09df" stroke-width="4"/>
        <path id="Trazado_5991-2" data-name="Trazado 5991" d="M78.432,75.5C89.4,71.663,97.241,64.29,84.019,54.953c2.01-.42,48.76,27.843,49.752,39.61C117.8,103.119,93.8,80.081,78.432,75.5Z" transform="translate(3.848 190.428)" fill="none" stroke="#bd09df" stroke-width="4"/>
        <path id="Trazado_5992-2" data-name="Trazado 5992" d="M82.183,42.659c22.248,4.689,38.775,5.252,50.6,3.474C175.868,63,129.416,66.358,111.88,66.916c-21.462.683-28.8-3.278-51.458-4.559C72.769,56.172,81.165,48.947,82.183,42.659Z" transform="translate(67.461 147.839)" fill="none" stroke="#bd09df" stroke-width="4"/>
        <path id="Trazado_5993-2" data-name="Trazado 5993" d="M155.43,85.033c-9.958,3.483-32.068-1.018-39.985-3.247C92.973,75.472,87.4,68.3,69.122,63.25c10.7-2.532,22.5-6.274,29.067-11.017C108.424,59.1,151.58,77.464,155.43,85.033Z" transform="translate(23.764 181.019)" fill="none" stroke="#bd09df" stroke-width="4"/>
        <path id="Trazado_5994-2" data-name="Trazado 5994" d="M368.751,120.945c-55.727,21.7-88.045,28.937-146.59,40.687-1.938-1.755-3.729-1.809-6.832-2.4,22.7,28.964-35.623,23.57-64.23,25.8.5-6.6-7.453-12.071-28.018-14.04,24.4,9.119,20.73,14.969,14.214,20.774-11.253,10.008-42.334,17.036-34.515,19.881C113.41,218.395,117.96,221.8,116,224.852c-5.52,8.623-43.036,8.069-40.986,12.8,12.281,7.636,32.666,19.435-30.407,23.588-10.124,2.211,28.808,26.414-38.28,16.393,0,0,46.22-42.482,61.367-87.129,7-20.613,14.1-30.442,24-35.529,11.557-5.93,26.9-5.39,50.283-8.074C275.29,131.6,369.077,92.446,460.971,1.382,454.505,50.942,418.767,92.352,368.751,120.945Z" transform="translate(-1.38 4.787)" fill="none" stroke="#bd09df" stroke-width="4"/>
        <path id="Trazado_5995-2" data-name="Trazado 5995" d="M116.521,78.123c-17.144-2.724-29.746-8.1-46.353-11.4,5.7-4.859,5.779-10.7-5.984-17.322,13.393-5.189,44.563,2.688,57.366,10.226C140.769,70.956,172.515,87.037,116.521,78.123Z" transform="translate(53.179 165.427)" fill="none" stroke="#bd09df" stroke-width="4"/>
        <path id="Trazado_5996-2" data-name="Trazado 5996" d="M124.681,63.063c2.443,5.113,45.451,30.956-8.815,20.171-.348-.7-.728-1.358-1.072-2.072A73.817,73.817,0,0,1,93.779,68.118C106.761,70.351,121.372,69.645,124.681,63.063Z" transform="translate(-74.072 218.552)" fill="none" stroke="#bd09df" stroke-width="4"/>
        <path id="Trazado_5997-2" data-name="Trazado 5997" d="M109.592,76.181c13.053,7.346,25.347,16.706,40.763,28.745.3,5.015.308,17.872-6.131,19.323-6.3,1.416-38.708-16.492-59.027-56.513C94.663,71.626,102.992,72.461,109.592,76.181Z" transform="translate(-43.04 234.747)" fill="none" stroke="#bd09df" stroke-width="4"/>
        <path id="Trazado_5998-2" data-name="Trazado 5998" d="M44.665,94.82c3.608-3.537,1.183-10.651-9.53-21.158C81.1,85.5,95.073,94.338,137.046,108.5c-35.564-23.36-20.153-15.46-52.717-28.821,5.93-1.554,8-5.479,2.854-13.178C84.61,62.659,79.97,59.175,74.7,56.1c51.217,4.153,54.463,12.276,102.268,23.775,19.073,6.386,69.651,23.266,50.819,30.683-22.163,8.735-60.018,4.086-90.434-2.063,6.158,3.381,38.8,21.064,29,29.594-13.232,11.517-55.865-2.059-78.81-10.771C60.576,101.358,74.017,111.129,44.665,94.82Z" transform="translate(99.049 194.431)" fill="none" stroke="#bd09df" stroke-width="4"/>
        <path id="Trazado_5999-2" data-name="Trazado 5999" d="M65.548,79.674c3.09-2.121,4.475-7.6-1.84-15.773,19.14,7.239,27.415,7.556,36.306,11.6,10.7,4.877,21.569,13.549,43.79,24.793,0,0,19.466,20.881,16.469,28.147-4.452,10.82-45.876-11.49-53.521-16.6C92.668,96.237,93.529,97.058,65.548,79.674Z" transform="translate(42.785 221.457)" fill="none" stroke="#bd09df" stroke-width="4"/>
        <path id="Trazado_6000-2" data-name="Trazado 6000" d="M74.171,78.578c3.394-1.889,4.93-6.439,1.389-13.022,18.984,7.815,30.6,10.159,39.213,14.527,11.374,5.765,20.587,10.74,41.3,26.026,4.032,8.592,11.253,26.338,4.041,28.277s-30.92-11.419-46.26-21.9C95.245,92.868,91.2,92.734,74.171,78.578Z" transform="translate(-6.539 227.192)" fill="none" stroke="#bd09df" stroke-width="4"/>
        <path id="Trazado_6001-2" data-name="Trazado 6001" d="M8.6,60.58c62.7-12.548,109.69-1.719,183.565-18.055,39.923-6.707,60.045-5.1,62.18,2.845,4.8,17.764-58.237,51.9-132.036,49.4C54.1,81.742,86.293,85.976,23.939,80.809,34.532,74.892,30.6,66.6,8.6,60.58Z" transform="translate(194.887 132.83)" fill="none" stroke="#bd09df" stroke-width="4"/>
        <path id="Trazado_6002-2" data-name="Trazado 6002" d="M.9,110.221c58.554-7.114,79.078-6.783,126.557-32.845,17.925-5.56,36.19-11.812,51.6-19.6,15.264-7.712,77.332-48.769,82.735-39.4,12.035,20.846-30.844,59.9-43.844,69.6a209.219,209.219,0,0,1-52.637,28.522C109.8,120.733,55.879,122.023.5,125.274,5.292,119.616,5.439,114.369.9,110.221Z" transform="translate(221.733 58.865)" fill="none" stroke="#bd09df" stroke-width="4"/>
        <path id="Trazado_6003-2" data-name="Trazado 6003" d="M116.225,101.035C75.194,81.949,94.245,89.541,49.034,74.5c5.113-5.6-3.1-15-26.361-24.851,53.539-1.509,83.432,4.814,137.038,6.685C215,67.1,232.207,72.366,228.7,81.828,223.588,95.663,165.816,103.456,116.225,101.035Z" transform="translate(157.48 171.265)" fill="none" stroke="#bd09df" stroke-width="4"/>
      </g>
    </g>
    <g id="Grupo_64" data-name="Grupo 64" transform="translate(1001.03 2670.164)" opacity="0.5">
      <g id="Grupo_63" data-name="Grupo 63" transform="translate(0 0)" clip-path="url(#clip-path-3)">
        <path id="Trazado_6004" data-name="Trazado 6004" d="M144.178,40.5c0,12.526-32.271,22.675-72.085,22.675S0,53.029,0,40.5a9.046,9.046,0,0,1,2.329-5.747,18.866,18.866,0,0,1,3.333-3.078c4.657,3.468,11.953,6.49,21.1,8.825,1.777.545,3.779,1.1,6.037,1.628,11.125,2.619,25.08,4.062,39.3,4.062s28.166-1.444,39.291-4.062c2.258-.531,4.268-1.083,6.044-1.628a.064.064,0,0,0-.035-.007c9.144-2.342,16.44-5.372,21.089-8.839a19.227,19.227,0,0,1,3.362,3.106,8.951,8.951,0,0,1,2.335,5.74" transform="translate(0 -17.822)" fill="#fea3f5"/>
        <path id="Trazado_6005" data-name="Trazado 6005" d="M145.774,13.835c-4.65,3.468-11.946,6.5-21.089,8.839-1.77-.545-3.765-1.09-6.008-1.621-11.125-2.618-25.074-4.069-39.291-4.069s-28.173,1.451-39.3,4.069c-2.257.531-4.26,1.083-6.036,1.628-9.144-2.335-16.44-5.357-21.1-8.825,4.671-3.475,12.01-6.5,21.217-8.839C46.535,1.882,62.267,0,79.386,0c17.1,0,32.8,1.875,45.165,5.01,9.2,2.322,16.546,5.35,21.224,8.825" transform="translate(-7.293 0)" fill="#ff75fa"/>
        <path id="Trazado_6006" data-name="Trazado 6006" d="M51.073,50.633q-1.848-.472-3.591-.982a24.507,24.507,0,0,0-4.291,4.785c1.4.482,2.859.947,4.385,1.389a22.027,22.027,0,0,1,4.936-4.765c-.495-.143-.976-.285-1.44-.428" transform="translate(-24.316 -27.952)" fill="#fed1ff"/>
        <path id="Trazado_6007" data-name="Trazado 6007" d="M101.473,59.884a170.527,170.527,0,0,1-29.468-3.592,37.143,37.143,0,0,0-4.663,4.879A183.655,183.655,0,0,0,100.8,65.382c.278-1.827.552-3.654.676-5.5" transform="translate(-37.911 -31.691)" fill="#fed1ff"/>
        <path id="Trazado_6008" data-name="Trazado 6008" d="M192.377,66.869a9.513,9.513,0,0,0-2.16-3.636c-3.7.316-7.505.533-11.355.645,0,.027-.005.055-.007.082a16.4,16.4,0,0,0,.654,5.414c4.584-.133,9.04-.4,13.335-.8a13.5,13.5,0,0,0-.467-1.71" transform="translate(-100.68 -35.598)" fill="#ffb9fc"/>
        <path id="Trazado_6009" data-name="Trazado 6009" d="M247.7,55.361c-.159.038-.309.077-.47.115-1.895.446-3.88.853-5.926,1.229a16.569,16.569,0,0,1,1.671,3.154,14.958,14.958,0,0,1,.666,2.21q3.938-.707,7.544-1.565a21.572,21.572,0,0,0-3.485-5.143" transform="translate(-135.846 -31.166)" fill="#ffb9fc"/>
      </g>
    </g>
  </g>
</svg>
