<svg id="Grupo_21" data-name="Grupo 21" xmlns="http://www.w3.org/2000/svg" xmlns:xlink="http://www.w3.org/1999/xlink" width="212" height="211.066" viewBox="0 0 212 211.066">
  <defs>
    <linearGradient id="linear-gradient" x1="0.198" y1="-0.67" x2="0.934" y2="1.087" gradientUnits="objectBoundingBox">
      <stop offset="0" stop-color="#e9ba00"/>
      <stop offset="0.322" stop-color="#feef1e"/>
      <stop offset="0.686" stop-color="#d89700"/>
      <stop offset="1" stop-color="#fe0"/>
    </linearGradient>
    <clipPath id="clip-path">
      <rect id="Rectángulo_20" data-name="Rectángulo 20" width="212" height="211.066" fill="url(#linear-gradient)"/>
    </clipPath>
  </defs>
  <g id="Grupo_20" data-name="Grupo 20" clip-path="url(#clip-path)">
    <path id="Trazado_5907" data-name="Trazado 5907" d="M109.129,333.679c2.284,3.207,4.5,6,6.379,9.015a62.408,62.408,0,0,1-9.045,77.267,60.525,60.525,0,0,1-35.84,17.68,60.757,60.757,0,0,1-38.967-7.557A62.483,62.483,0,0,1,.177,370.893a60.429,60.429,0,0,1,11.162-30.956,62.445,62.445,0,0,1,65.6-25.017,61.529,61.529,0,0,1,21.59,9.756c1.357.954,1.7,2.159.971,3.26-.716,1.082-2.143,1.2-3.5.256a56.914,56.914,0,0,0-37.94-10.437,56.624,56.624,0,0,0-34.97,15.326C13.341,342.11,7.03,353.2,5.169,366.358c-3.134,22.158,3.939,40.651,21.29,54.94A53.981,53.981,0,0,0,56.2,433.529c17.616,1.669,33.006-3.563,46.029-15.612a6.532,6.532,0,0,0,.466-.514c-2.037-2.836-4.168-5.519-5.993-8.4A62.365,62.365,0,0,1,113,325.084a62.3,62.3,0,0,1,81.629,7.482,60.355,60.355,0,0,1,17.052,37.023c1.79,18.894-3.982,35.388-16.95,49.231a59.552,59.552,0,0,1-31.866,17.966c-17.541,3.662-33.848.477-48.758-9.561-.265-.179-.525-.368-.773-.569-1.175-.953-1.448-2.216-.706-3.228s2-1.12,3.286-.311c2.086,1.315,4.144,2.687,6.3,3.876a55.235,55.235,0,0,0,21.468,6.568A55.936,55.936,0,0,0,171.6,429.5c16.018-6.853,27.325-18.409,32.851-34.973,6.764-20.277,3.191-39.055-10.118-55.713a54.822,54.822,0,0,0-34.583-20.275c-18.773-3.194-35.261,1.808-49.508,14.381a9.4,9.4,0,0,1-1.11.758m-3.087,3.757C86.809,357.9,86.407,392.52,105.864,413.9c19-19.813,20.195-54.639.178-76.462" transform="translate(0 -227.189)" fill="url(#linear-gradient)"/>
    <path id="Trazado_5908" data-name="Trazado 5908" d="M307.173,201.69c2.763-3.742,5.541-7.535,8.374-11.286a1.816,1.816,0,0,1,1.3-.5q12.473-.042,24.946.015a2.077,2.077,0,0,1,1.415.767c2.535,3.352,4.988,6.766,7.516,10.122a1.263,1.263,0,0,1-.029,1.879q-7.687,9.295-15.309,18.642c-1.217,1.484-2.412,2.986-3.66,4.444a3.2,3.2,0,0,1-4.82.107q-9.8-11.9-19.55-23.849a2.515,2.515,0,0,1-.181-.34m38.7-.08c-1.656-2.247-3.214-4.442-4.879-6.552a2.441,2.441,0,0,0-1.671-.826q-10.076-.085-20.153,0a2.468,2.468,0,0,0-1.674.841c-1.484,1.853-2.826,3.819-4.275,5.7a1.117,1.117,0,0,0,.066,1.657q6.946,8.4,13.846,16.833c.679.827,1.365,1.648,2.143,2.586l16.6-20.241" transform="translate(-222.816 -137.737)" fill="url(#linear-gradient)"/>
    <path id="Trazado_5909" data-name="Trazado 5909" d="M522.15,210.757a2.175,2.175,0,0,1-2.391-1.944,2.125,2.125,0,0,1,2.074-2.4q10.363-1.512,20.731-2.983c1.354-.194,2.7-.448,4.065-.557a2.194,2.194,0,0,1,2.552,1.915,2.236,2.236,0,0,1-2.1,2.414q-12.26,1.779-24.524,3.52c-.135.02-.273.022-.41.031" transform="translate(-377.013 -147.154)" fill="url(#linear-gradient)"/>
    <path id="Trazado_5910" data-name="Trazado 5910" d="M183.916,210.74c-3.719-.536-7.6-1.1-11.477-1.654q-6.5-.93-13-1.851c-1.694-.244-2.529-1.168-2.355-2.566.159-1.27,1.231-2.007,2.892-1.781,5.465.744,10.922,1.545,16.381,2.332,2.706.39,5.412.781,8.113,1.205a2.1,2.1,0,0,1,1.938,2.484,2.174,2.174,0,0,1-2.494,1.83" transform="translate(-113.931 -147.141)" fill="url(#linear-gradient)"/>
    <path id="Trazado_5911" data-name="Trazado 5911" d="M379.662,14.691c0-4.019-.012-8.039.005-12.058C379.675.848,380.445-.028,381.9,0c1.369.028,2.132.928,2.134,2.622q.016,12.127,0,24.254c0,1.738-.824,2.733-2.191,2.735-1.393,0-2.175-.944-2.182-2.725-.015-4.065,0-8.13,0-12.2Z" transform="translate(-275.391 0)" fill="url(#linear-gradient)"/>
    <path id="Trazado_5912" data-name="Trazado 5912" d="M475.238,112.195c-.654-.523-1.457-.871-1.729-1.464a2.478,2.478,0,0,1,.041-2.139q3.391-4.19,7.056-8.153a1.921,1.921,0,0,1,2.837.136,2.166,2.166,0,0,1,.014,3.083c-1.285,1.537-2.622,3.031-3.937,4.543-.807.928-1.572,1.9-2.438,2.767a11.793,11.793,0,0,1-1.844,1.225" transform="translate(-343.313 -72.445)" fill="url(#linear-gradient)"/>
    <path id="Trazado_5913" data-name="Trazado 5913" d="M280.108,112.347a9.66,9.66,0,0,1-1.871-1.227q-3.244-3.61-6.374-7.32a2.071,2.071,0,0,1,.066-3.161,2.139,2.139,0,0,1,3.16.272c2.18,2.453,4.361,4.91,6.4,7.475a2.918,2.918,0,0,1,.372,2.353c-.2.625-1.087,1.031-1.758,1.608" transform="translate(-196.698 -72.584)" fill="url(#linear-gradient)"/>
    <path id="Trazado_5914" data-name="Trazado 5914" d="M239.919,65.441c-1.58-.02-5.157-4.24-4.917-5.8a2.048,2.048,0,0,1,3.24-1.377,24.06,24.06,0,0,1,3.579,4.109c.889,1.288-.324,3.088-1.9,3.068" transform="translate(-170.457 -41.948)" fill="url(#linear-gradient)"/>
    <path id="Trazado_5915" data-name="Trazado 5915" d="M530.435,60.5a11.038,11.038,0,0,1-.911,1.786c-.82,1.033-1.7,2.025-2.6,2.989a2.193,2.193,0,0,1-3.074.28,2.163,2.163,0,0,1-.3-2.966,22.929,22.929,0,0,1,3.089-3.45,2.789,2.789,0,0,1,2.324-.364c.61.208.982,1.117,1.465,1.725" transform="translate(-379.447 -42.554)" fill="url(#linear-gradient)"/>
  </g>
</svg>
