<svg xmlns="http://www.w3.org/2000/svg" xmlns:xlink="http://www.w3.org/1999/xlink" width="1699.071" height="421.637" viewBox="0 0 1699.071 421.637">
  <defs>
    <clipPath id="clip-path">
      <rect id="Rectángulo_27" data-name="Rectángulo 27" width="565.119" height="421.637" fill="none" stroke="#bd09df" stroke-width="4"/>
    </clipPath>
  </defs>
  <g id="Grupo_59" data-name="Grupo 59" transform="translate(-549.808 -2603.415)" opacity="0.47">
    <g id="Grupo_55" data-name="Grupo 55" transform="translate(549.808 2603.415)" opacity="0.49">
      <g id="Grupo_54" data-name="Grupo 54" transform="translate(0 0)" clip-path="url(#clip-path)">
        <path id="Trazado_5990" data-name="Trazado 5990" d="M121.7,86.949c12.182-4.418,22.8-10.578,30.209-22.589-10.361-.755-22.7-1.36-33.452-4.407-11.877,7.707-16.418,9.352-29.04,24.26C72.359,104.345,115.769,89.106,121.7,86.949Z" transform="translate(356.644 250.163)" fill="none" stroke="#bd09df" stroke-width="4"/>
        <path id="Trazado_5991" data-name="Trazado 5991" d="M142.533,78.758c-12.71-4.449-21.788-12.989-6.471-23.805-2.328-.486-56.481,32.252-57.63,45.882C96.935,110.747,124.728,84.06,142.533,78.758Z" transform="translate(327.278 229.282)" fill="none" stroke="#bd09df" stroke-width="4"/>
        <path id="Trazado_5992" data-name="Trazado 5992" d="M139.654,42.659c-25.771,5.431-44.915,6.083-58.618,4.024-49.9,19.532,3.905,23.427,24.219,24.074,24.86.791,33.364-3.8,59.606-5.281C150.558,58.312,140.834,49.942,139.654,42.659Z" transform="translate(252.126 178.003)" fill="none" stroke="#bd09df" stroke-width="4"/>
        <path id="Trazado_5993" data-name="Trazado 5993" d="M69.122,90.227c11.535,4.035,37.146-1.179,46.317-3.761,26.029-7.314,32.485-15.627,53.657-21.472-12.4-2.933-26.06-7.268-33.669-12.761C123.571,60.189,73.581,81.459,69.122,90.227Z" transform="translate(288.43 217.953)" fill="none" stroke="#bd09df" stroke-width="4"/>
        <path id="Trazado_5994" data-name="Trazado 5994" d="M113.155,139.878c64.551,25.134,101.986,33.52,169.8,47.129,2.245-2.033,4.319-2.095,7.914-2.783-26.293,33.551,41.263,27.3,74.4,29.883-.584-7.645,8.633-13.982,32.454-16.263-28.269,10.563-24.012,17.339-16.465,24.064,13.035,11.592,49.038,19.734,39.98,23.029-12.311,7.821-17.582,11.768-15.317,15.3,6.394,9.989,49.85,9.347,47.476,14.825-14.225,8.845-37.839,22.512,35.221,27.323,11.727,2.561-33.37,30.6,44.341,18.989,0,0-53.538-49.208-71.084-100.926-8.106-23.877-16.336-35.263-27.8-41.154-13.387-6.869-31.161-6.244-58.245-9.352C221.415,152.215,112.777,106.865,6.332,1.382,13.822,58.789,55.22,106.756,113.155,139.878Z" transform="translate(26.422 5.764)" fill="none" stroke="#bd09df" stroke-width="4"/>
        <path id="Trazado_5995" data-name="Trazado 5995" d="M100.728,82.935c19.858-3.155,34.456-9.383,53.693-13.2-6.6-5.628-6.694-12.389,6.932-20.065C145.84,43.659,109.734,52.783,94.9,61.515,72.64,74.633,35.867,93.26,100.728,82.935Z" transform="translate(267.821 199.179)" fill="none" stroke="#bd09df" stroke-width="4"/>
        <path id="Trazado_5996" data-name="Trazado 5996" d="M115.178,63.063c-2.829,5.923-52.648,35.858,10.211,23.365.4-.812.843-1.573,1.241-2.4a85.5,85.5,0,0,0,24.343-15.11C135.936,71.5,119.011,70.688,115.178,63.063Z" transform="translate(391.318 263.144)" fill="none" stroke="#bd09df" stroke-width="4"/>
        <path id="Trazado_5997" data-name="Trazado 5997" d="M132.526,77.518c-15.12,8.509-29.361,19.351-47.217,33.3-.347,5.809-.357,20.7,7.1,22.382,7.294,1.64,44.837-19.1,68.374-65.461C149.819,72.242,140.171,73.209,132.526,77.518Z" transform="translate(355.503 282.644)" fill="none" stroke="#bd09df" stroke-width="4"/>
        <path id="Trazado_5998" data-name="Trazado 5998" d="M252.039,100.951c-4.18-4.1-1.371-12.337,11.039-24.509C209.83,90.15,193.649,100.392,145.03,116.8c41.2-27.059,23.345-17.908,61.064-33.385-6.869-1.8-9.264-6.347-3.305-15.265,2.98-4.449,8.354-8.483,14.458-12.042-59.326,4.811-63.087,14.22-118.461,27.54-22.093,7.4-80.68,26.95-58.866,35.542,25.672,10.118,69.522,4.733,104.754-2.39-7.133,3.916-44.946,24.4-33.587,34.28,15.327,13.341,64.711-2.385,91.289-12.477C233.609,108.524,218.039,119.842,252.039,100.951Z" transform="translate(146.61 234.102)" fill="none" stroke="#bd09df" stroke-width="4"/>
        <path id="Trazado_5999" data-name="Trazado 5999" d="M173.8,82.171c-3.58-2.457-5.183-8.8,2.131-18.27-22.17,8.385-31.756,8.752-42.055,13.439-12.394,5.649-24.984,15.694-50.724,28.719,0,0-22.548,24.188-19.077,32.6,5.157,12.534,53.14-13.31,62-19.227C142.381,101.357,141.383,102.309,173.8,82.171Z" transform="translate(265.837 266.641)" fill="none" stroke="#bd09df" stroke-width="4"/>
        <path id="Trazado_6000" data-name="Trazado 6000" d="M177.279,80.64c-3.931-2.188-5.711-7.459-1.609-15.084-21.989,9.052-35.449,11.768-45.422,16.827C117.073,89.061,106.4,94.823,82.41,112.53c-4.671,9.952-13.035,30.509-4.681,32.754,8.37,2.245,35.816-13.227,53.585-25.367C152.868,97.193,157.555,97.037,177.279,80.64Z" transform="translate(309.499 273.547)" fill="none" stroke="#bd09df" stroke-width="4"/>
        <path id="Trazado_6001" data-name="Trazado 6001" d="M293.55,64.1C220.925,49.567,166.492,62.111,80.919,43.189c-46.244-7.77-69.553-5.9-72.026,3.3C3.338,67.062,76.351,106.6,161.836,103.706c79.009-15.089,41.713-10.185,113.94-16.17C263.507,80.682,268.059,71.081,293.55,64.1Z" transform="translate(35.867 159.932)" fill="none" stroke="#bd09df" stroke-width="4"/>
        <path id="Trazado_6002" data-name="Trazado 6002" d="M305.144,124.984c-67.825-8.24-91.6-7.857-146.6-38.046-20.763-6.44-41.92-13.682-59.771-22.708C81.1,55.3,9.2,7.738,2.941,18.585-11,42.732,38.669,87.973,53.727,99.208A242.349,242.349,0,0,0,114.7,132.246c64.3,4.914,126.764,6.409,190.911,10.175C300.059,135.867,299.888,129.789,305.144,124.984Z" transform="translate(2.087 70.875)" fill="none" stroke="#bd09df" stroke-width="4"/>
        <path id="Trazado_6003" data-name="Trazado 6003" d="M153.464,109.208c47.527-22.108,25.46-13.315,77.829-30.737-5.923-6.487,3.59-17.38,30.535-28.786-62.016-1.748-96.643,5.576-158.737,7.744C39.053,69.9,19.117,76,23.177,86.96,29.1,102.986,96.02,112.012,153.464,109.208Z" transform="translate(94.612 206.208)" fill="none" stroke="#bd09df" stroke-width="4"/>
      </g>
    </g>
    <g id="Grupo_56" data-name="Grupo 56" transform="translate(1683.759 2603.415)" opacity="0.49">
      <g id="Grupo_54-2" data-name="Grupo 54" clip-path="url(#clip-path)">
        <path id="Trazado_5990-2" data-name="Trazado 5990" d="M115.678,86.949C103.5,82.531,92.882,76.37,85.469,64.359c10.361-.755,22.7-1.36,33.452-4.407,11.877,7.707,16.418,9.352,29.04,24.26C165.016,104.345,121.606,89.106,115.678,86.949Z" transform="translate(-28.9 250.163)" fill="none" stroke="#bd09df" stroke-width="4"/>
        <path id="Trazado_5991-2" data-name="Trazado 5991" d="M78.432,78.758C91.142,74.31,100.22,65.77,84.9,54.953c2.328-.486,56.481,32.252,57.63,45.882C124.03,110.747,96.237,84.06,78.432,78.758Z" transform="translate(16.876 229.282)" fill="none" stroke="#bd09df" stroke-width="4"/>
        <path id="Trazado_5992-2" data-name="Trazado 5992" d="M85.629,42.659c25.771,5.431,44.915,6.083,58.618,4.024,49.9,19.532-3.905,23.427-24.219,24.074-24.86.791-33.364-3.8-59.606-5.281C74.724,58.312,84.449,49.942,85.629,42.659Z" transform="translate(87.711 178.003)" fill="none" stroke="#bd09df" stroke-width="4"/>
        <path id="Trazado_5993-2" data-name="Trazado 5993" d="M169.1,90.227c-11.535,4.035-37.146-1.179-46.317-3.761C96.75,79.152,90.294,70.839,69.122,64.994c12.4-2.933,26.06-7.268,33.67-12.761C114.647,60.189,164.637,81.459,169.1,90.227Z" transform="translate(38.471 217.953)" fill="none" stroke="#bd09df" stroke-width="4"/>
        <path id="Trazado_5994-2" data-name="Trazado 5994" d="M426.138,139.878c-64.551,25.134-101.986,33.52-169.8,47.129-2.245-2.033-4.319-2.095-7.914-2.783,26.293,33.551-41.263,27.3-74.4,29.883.584-7.645-8.633-13.982-32.454-16.263,28.269,10.563,24.012,17.339,16.465,24.064C145,233.5,109,241.641,118.053,244.936c12.311,7.821,17.582,11.768,15.317,15.3-6.394,9.989-49.85,9.347-47.476,14.825,14.225,8.845,37.839,22.512-35.221,27.323-11.727,2.561,33.37,30.6-44.341,18.989,0,0,53.538-49.208,71.084-100.926,8.106-23.877,16.336-35.263,27.8-41.154,13.387-6.869,31.161-6.244,58.245-9.352,154.417-17.727,263.056-63.077,369.5-168.56C525.471,58.789,484.073,106.756,426.138,139.878Z" transform="translate(-0.595 5.764)" fill="none" stroke="#bd09df" stroke-width="4"/>
        <path id="Trazado_5995-2" data-name="Trazado 5995" d="M124.808,82.935c-19.858-3.155-34.456-9.383-53.693-13.2,6.6-5.628,6.694-12.389-6.932-20.065C79.7,43.659,115.8,52.783,130.632,61.515,152.9,74.633,189.669,93.26,124.808,82.935Z" transform="translate(71.762 199.179)" fill="none" stroke="#bd09df" stroke-width="4"/>
        <path id="Trazado_5996-2" data-name="Trazado 5996" d="M129.575,63.063c2.829,5.923,52.648,35.858-10.211,23.365-.4-.812-.843-1.573-1.241-2.4a85.5,85.5,0,0,1-24.343-15.11C108.816,71.5,125.742,70.688,129.575,63.063Z" transform="translate(-70.952 263.144)" fill="none" stroke="#bd09df" stroke-width="4"/>
        <path id="Trazado_5997-2" data-name="Trazado 5997" d="M113.455,77.518c15.12,8.509,29.361,19.351,47.217,33.3.347,5.809.357,20.7-7.1,22.382-7.294,1.64-44.837-19.1-68.374-65.461C96.162,72.242,105.81,73.209,113.455,77.518Z" transform="translate(-36.365 282.644)" fill="none" stroke="#bd09df" stroke-width="4"/>
        <path id="Trazado_5998-2" data-name="Trazado 5998" d="M46.174,100.951c4.18-4.1,1.371-12.337-11.039-24.509,53.248,13.708,69.429,23.95,118.048,40.353-41.2-27.059-23.345-17.908-61.064-33.385,6.869-1.8,9.264-6.347,3.305-15.265C92.444,63.7,87.069,59.662,80.966,56.1c59.326,4.811,63.087,14.22,118.461,27.54,22.093,7.4,80.68,26.95,58.866,35.542-25.672,10.118-69.522,4.733-104.754-2.39,7.133,3.916,44.946,24.4,33.587,34.28C171.8,164.415,122.415,148.69,95.837,138.6,64.6,108.524,80.174,119.842,46.174,100.951Z" transform="translate(120.296 234.102)" fill="none" stroke="#bd09df" stroke-width="4"/>
        <path id="Trazado_5999-2" data-name="Trazado 5999" d="M65.839,82.171c3.58-2.457,5.183-8.8-2.131-18.27,22.17,8.385,31.756,8.752,42.055,13.439,12.394,5.649,24.984,15.694,50.724,28.719,0,0,22.548,24.188,19.077,32.6-5.157,12.534-53.14-13.31-62-19.227C97.253,101.357,98.251,102.309,65.839,82.171Z" transform="translate(59.647 266.641)" fill="none" stroke="#bd09df" stroke-width="4"/>
        <path id="Trazado_6000-2" data-name="Trazado 6000" d="M74.171,80.64c3.931-2.188,5.711-7.459,1.609-15.084,21.989,9.052,35.449,11.768,45.422,16.827,13.175,6.678,23.846,12.44,47.838,30.147,4.671,9.952,13.035,30.509,4.681,32.754-8.369,2.245-35.816-13.227-53.585-25.367C98.581,97.193,93.895,97.037,74.171,80.64Z" transform="translate(4.17 273.547)" fill="none" stroke="#bd09df" stroke-width="4"/>
        <path id="Trazado_6001-2" data-name="Trazado 6001" d="M8.6,64.1c72.626-14.535,127.059-1.992,212.632-20.913,46.244-7.77,69.553-5.9,72.026,3.3,5.556,20.577-67.458,60.118-152.943,57.221C61.3,88.617,98.6,93.52,26.369,87.536,38.639,80.682,34.087,71.081,8.6,64.1Z" transform="translate(227.107 159.932)" fill="none" stroke="#bd09df" stroke-width="4"/>
        <path id="Trazado_6002-2" data-name="Trazado 6002" d="M.966,124.984c67.825-8.24,91.6-7.857,146.6-38.046,20.763-6.44,41.92-13.682,59.771-22.708C225.014,55.3,296.91,7.738,303.169,18.585c13.941,24.146-35.728,69.387-50.786,80.623a242.348,242.348,0,0,1-60.971,33.038C127.109,137.16,64.648,138.655.5,142.421,6.051,135.867,6.221,129.789.966,124.984Z" transform="translate(256.922 70.875)" fill="none" stroke="#bd09df" stroke-width="4"/>
        <path id="Trazado_6003-2" data-name="Trazado 6003" d="M131.038,109.208C83.51,87.1,105.577,95.894,53.208,78.472c5.923-6.487-3.59-17.38-30.535-28.786,62.016-1.748,96.643,5.576,158.737,7.744C245.449,69.9,265.385,76,261.324,86.96,255.4,102.986,188.481,112.012,131.038,109.208Z" transform="translate(186.006 206.208)" fill="none" stroke="#bd09df" stroke-width="4"/>
      </g>
    </g>
  </g>
</svg>
